<?xml version="1.0" encoding="UTF-8"?>
<svg id="Layer_1" data-name="Layer 1" xmlns="http://www.w3.org/2000/svg" viewBox="0 0 72 72">
  <defs>
    <style>
      .cls-1 {
        fill: #fff;
      }

      .cls-2 {
        fill: #0046c8;
      }

      .cls-3 {
        fill: #00c7fd;
      }
    </style>
  </defs>
  <path class="cls-2" d="M0,0v72h72V0H0Z"/>
  <rect class="cls-3" x="11.9" y="24.72" width="3.79" height="3.79"/>
  <path class="cls-1" d="M15.59,44.45v-13.64h-3.59v13.64h3.59ZM39.41,44.59v-3.34c-.53,0-.97-.03-1.3-.08-.37-.06-.65-.18-.84-.37-.19-.19-.32-.46-.37-.82-.06-.34-.08-.78-.08-1.32v-4.77h2.6v-3.07h-2.6v-5.31h-3.59v13.18c0,1.11.1,2.06.29,2.81.19.75.51,1.35.96,1.81.45.46,1.04.79,1.75.98.72.2,1.65.3,2.74.3h.45ZM60,44.45v-20h-3.59v20h3.59ZM29.75,32.15c-1-1.07-2.4-1.62-4.18-1.62-.86,0-1.65.18-2.36.52-.71.35-1.31.84-1.79,1.46l-.2.25v-.23s0-1.73,0-1.73h-3.54v13.64h3.57v-6.76c0-.08,0-.16,0-.25.04-1.27.36-2.23.95-2.83.63-.64,1.4-.97,2.28-.97,1.04,0,1.83.32,2.35.94.51.61.78,1.49.78,2.61h0s0,.03,0,.03c0,0,0,0,0,0h0v7.21h3.63v-7.74c0-1.94-.51-3.48-1.5-4.55ZM54.54,37.6c0-.98-.17-1.91-.52-2.76-.34-.85-.83-1.61-1.45-2.25-.62-.64-1.36-1.15-2.22-1.51-.86-.36-1.82-.55-2.85-.55-.98,0-1.91.19-2.77.56-.86.37-1.62.88-2.25,1.52-.63.63-1.14,1.39-1.52,2.25-.37.86-.56,1.79-.56,2.77s.18,1.91.53,2.77c.35.86.85,1.62,1.47,2.25.62.63,1.39,1.14,2.28,1.51.89.37,1.87.56,2.92.56,3.04,0,4.94-1.38,6.07-2.68l-2.59-1.97c-.55.65-1.84,1.52-3.45,1.52-1.01,0-1.85-.23-2.48-.7-.63-.46-1.07-1.1-1.3-1.89l-.04-.13h10.72v-1.28ZM43.85,36.35c0-1,1.15-2.74,3.62-2.74,2.47,0,3.62,1.74,3.62,2.74h-7.24Z"/>
</svg>
